<?xml version="1.0" standalone="no"?>
<!DOCTYPE svg PUBLIC "-//W3C//DTD SVG 20010904//EN"
 "http://www.w3.org/TR/2001/REC-SVG-20010904/DTD/svg10.dtd">
<svg version="1.0" xmlns="http://www.w3.org/2000/svg"
 width="782.000000pt" height="782.000000pt" viewBox="0 0 782.000000 782.000000"
 preserveAspectRatio="xMidYMid meet">
<metadata>
Created by potrace 1.14, written by Peter Selinger 2001-2017
</metadata>
<g transform="translate(0.000000,782.000000) scale(0.100000,-0.100000)"
fill="#000000" stroke="none">
<path d="M3878 7804 c-4 -3 -12 -7 -20 -8 -7 -2 -20 -5 -28 -8 -8 -3 -76 -27
-150 -53 -126 -44 -296 -109 -365 -140 -16 -7 -52 -23 -80 -35 -93 -40 -120
-52 -215 -97 -109 -52 -318 -156 -370 -186 -19 -11 -55 -31 -80 -45 -101 -55
-273 -161 -405 -248 -123 -80 -401 -277 -415 -294 -3 -3 -36 -30 -75 -60 -81
-63 -103 -81 -119 -95 -6 -5 -65 -57 -131 -114 -110 -96 -433 -413 -531 -521
-36 -40 -252 -295 -291 -344 -64 -79 -229 -309 -317 -440 -91 -135 -106 -163
-107 -199 0 -23 -2 -51 -4 -62 -4 -19 -13 -128 -20 -250 -5 -77 -5 -584 -1
-650 2 -27 7 -95 11 -150 3 -55 8 -111 10 -125 2 -14 7 -56 11 -95 3 -38 8
-79 10 -90 2 -11 7 -40 10 -65 3 -25 8 -58 10 -75 3 -16 7 -43 10 -60 2 -16 6
-41 9 -55 3 -14 8 -41 11 -60 3 -19 7 -42 9 -50 2 -8 7 -28 9 -45 10 -56 57
-260 77 -333 11 -40 22 -81 24 -90 12 -56 112 -360 164 -500 132 -355 352
-788 569 -1122 48 -73 180 -265 204 -295 4 -5 49 -64 100 -130 51 -66 95 -122
98 -125 3 -3 15 -18 27 -33 79 -103 81 -104 260 -153 92 -25 174 -47 183 -49
8 -2 71 -17 140 -33 69 -17 161 -38 205 -47 44 -9 87 -18 96 -20 8 -2 96 -17
195 -34 163 -27 243 -39 389 -56 28 -4 61 -8 75 -10 14 -2 61 -7 105 -10 44
-4 91 -8 105 -11 82 -12 313 -19 655 -19 336 0 466 5 620 20 17 1 66 6 110 10
44 3 94 8 110 10 17 2 55 6 85 10 30 3 66 8 80 10 55 8 117 17 145 21 17 3 41
7 55 9 33 5 97 16 124 21 11 2 50 9 86 15 36 6 135 27 220 46 85 19 166 36
180 39 14 3 39 9 57 15 17 5 42 12 55 14 22 5 109 28 275 75 l81 23 85 116
c585 803 981 1633 1197 2512 17 68 33 140 36 159 3 19 9 51 14 70 12 45 19 84
44 240 8 52 18 115 21 140 3 25 8 63 11 85 13 95 11 72 30 300 21 248 20 669
-1 933 -5 70 5 53 -189 302 -49 63 -94 120 -100 125 -6 6 -23 26 -37 45 -15
19 -35 44 -45 55 -11 11 -41 47 -69 80 -48 59 -167 193 -255 289 -134 146
-451 455 -585 571 -38 33 -87 76 -110 95 -403 353 -944 714 -1445 966 -116 58
-319 154 -325 154 -3 0 -29 11 -58 25 -75 34 -282 116 -403 159 -96 34 -143
43 -156 30z"/>
</g>
</svg>
